<svg width="536" height="451" viewBox="0 0 536 451" fill="none" xmlns="http://www.w3.org/2000/svg">
<path d="M-44.7754 182.265C37.3109 225.834 40.4681 428.486 110.557 416.489C193.912 402.221 132.657 129.187 231.792 125.398C299.975 122.792 316.404 329.982 378.285 329.982C490.68 343.242 451.531 -49.4702 588.552 37.6675" stroke="#8D8D8D" stroke-opacity="0.6" stroke-width="0.5" stroke-dasharray="3 3"/>
<circle cx="226.741" cy="124.766" r="13.8915" fill="#D9D9D9"/>
<path fill-rule="evenodd" clip-rule="evenodd" d="M226.743 117.189C226.046 117.189 225.48 117.754 225.48 118.452V123.503H220.429C219.731 123.503 219.166 124.069 219.166 124.766C219.166 125.464 219.731 126.029 220.429 126.029H225.48V131.08C225.48 131.778 226.046 132.343 226.743 132.343C227.441 132.343 228.006 131.778 228.006 131.08V126.029H233.058C233.755 126.029 234.32 125.464 234.32 124.766C234.32 124.069 233.755 123.503 233.058 123.503H228.006V118.452C228.006 117.754 227.441 117.189 226.743 117.189Z" fill="white"/>
<circle cx="519.726" cy="38.8915" r="13.8915" fill="#D9D9D9"/>
<path fill-rule="evenodd" clip-rule="evenodd" d="M519.726 31.3145C519.028 31.3145 518.463 31.8799 518.463 32.5773V37.6289H513.411C512.714 37.6289 512.148 38.1943 512.148 38.8918C512.148 39.5892 512.714 40.1546 513.411 40.1546H518.463V45.206C518.463 45.9034 519.028 46.4688 519.726 46.4688C520.423 46.4688 520.989 45.9034 520.989 45.206V40.1546H526.04C526.737 40.1546 527.303 39.5892 527.303 38.8918C527.303 38.1943 526.737 37.6289 526.04 37.6289H520.989V32.5773C520.989 31.8799 520.423 31.3145 519.726 31.3145Z" fill="white"/>
<circle cx="388.388" cy="330.613" r="13.8915" fill="#D9D9D9"/>
<path d="M394.702 329.351C395.4 329.351 395.965 329.916 395.965 330.613C395.965 331.311 395.4 331.876 394.702 331.876L382.073 331.876C381.376 331.876 380.811 331.311 380.811 330.613C380.811 329.916 381.376 329.351 382.073 329.351L394.702 329.351Z" fill="white"/>
</svg>
