<svg width="28" height="24" viewBox="0 0 28 24" fill="none" xmlns="http://www.w3.org/2000/svg">
<path d="M26.5941 13.1447L17.036 22.8208C16.7331 23.1211 16.3257 23.2897 15.9079 23.2897C15.4848 23.2897 15.0774 23.1211 14.7744 22.8208C14.6282 22.6707 14.5081 22.4931 14.4298 22.297C14.3514 22.1009 14.3096 21.8905 14.3096 21.6785C14.3096 21.466 14.3514 21.2562 14.4298 21.06C14.5081 20.8639 14.6282 20.6858 14.7744 20.5362L21.6165 13.6146H2.09823C1.67517 13.6146 1.26784 13.4449 0.97013 13.1426C0.672419 12.8402 0.5 12.43 0.5 12.0023C0.5 11.5742 0.672419 11.164 0.97013 10.8616C1.26784 10.5592 1.67517 10.3896 2.09823 10.3896H21.6165L14.7744 3.46796C14.4767 3.16507 14.3096 2.75435 14.3096 2.32565C14.3096 2.11368 14.3514 1.90381 14.4298 1.7077C14.5133 1.51158 14.6282 1.33344 14.7744 1.18331C14.9259 1.03372 15.1035 0.914777 15.2968 0.833372C15.49 0.751966 15.6937 0.710205 15.9079 0.710205C16.3309 0.710205 16.7331 0.880419 17.036 1.18331L26.5941 10.86C26.7455 11.0096 26.8604 11.1878 26.944 11.3839C27.0224 11.5795 27.0641 11.7898 27.0641 12.0023C27.0641 12.2143 27.0224 12.4247 26.944 12.6208C26.8604 12.8164 26.7455 12.9945 26.5941 13.1447Z" fill="#F4FA01"/>
</svg>
