<svg width="186" height="30" viewBox="0 0 186 30" fill="none" xmlns="http://www.w3.org/2000/svg">
<path d="M0 0H11.2004C13.4969 0 15.4702 0.343407 17.1204 1.03022C18.7843 1.71703 20.0631 2.73352 20.957 4.07967C21.8508 5.42582 22.2977 7.08104 22.2977 9.04533C22.2977 10.6525 22.0227 12.033 21.4726 13.1868C20.9363 14.3269 20.1731 15.2816 19.1831 16.0508C18.2067 16.8063 17.0585 17.4107 15.7384 17.864L13.7788 18.8942H4.04288L4.00163 14.0728H11.2417C12.328 14.0728 13.2287 13.8805 13.9438 13.4959C14.6589 13.1113 15.1952 12.5755 15.5527 11.8887C15.924 11.2019 16.1096 10.4052 16.1096 9.49863C16.1096 8.53709 15.9309 7.70604 15.5733 7.00549C15.2158 6.30495 14.6726 5.76923 13.9438 5.39835C13.215 5.02747 12.3005 4.84203 11.2004 4.84203H6.18808V30H0V0ZM16.7903 30L9.94219 16.6277L16.4809 16.5865L23.4116 29.7115V30H16.7903Z" fill="black"/>
<path d="M49.3273 25.1786V30H33.3414V25.1786H49.3273ZM35.3628 0V30H29.1747V0H35.3628ZM47.2439 12.2184V16.9162H33.3414V12.2184H47.2439ZM49.3066 0V4.84203H33.3414V0H49.3066Z" fill="black"/>
<path d="M66.8065 16.8338H59.0921L59.0508 12.5893H65.5277C66.669 12.5893 67.6041 12.4451 68.3329 12.1566C69.0618 11.8544 69.6049 11.4217 69.9625 10.8585C70.3337 10.2816 70.5194 9.58104 70.5194 8.75687C70.5194 7.8228 70.3406 7.06731 69.9831 6.49038C69.6393 5.91346 69.0961 5.49451 68.3536 5.23352C67.6247 4.97253 66.6828 4.84203 65.5277 4.84203H61.2373V30H55.0492V0H65.5277C67.2741 0 68.8349 0.164835 70.21 0.494505C71.5989 0.824176 72.7746 1.32555 73.7372 1.99863C74.6998 2.6717 75.4355 3.52335 75.9443 4.55357C76.4531 5.57006 76.7075 6.77885 76.7075 8.17994C76.7075 9.41621 76.4256 10.5563 75.8618 11.6003C75.3117 12.6442 74.4385 13.4959 73.2421 14.1552C72.0595 14.8146 70.5125 15.1786 68.6011 15.2473L66.8065 16.8338ZM66.5384 30H57.4007L59.814 25.1786H66.5384C67.6247 25.1786 68.5117 25.0069 69.1993 24.6635C69.8868 24.3063 70.3956 23.8255 70.7257 23.2212C71.0557 22.6168 71.2207 21.9231 71.2207 21.1401C71.2207 20.261 71.0694 19.4986 70.7669 18.853C70.4781 18.2074 70.0106 17.7129 69.3643 17.3695C68.718 17.0124 67.8654 16.8338 66.8065 16.8338H60.8454L60.8866 12.5893H68.3123L69.7356 14.2582C71.5645 14.2308 73.0359 14.5536 74.1497 15.2266C75.2773 15.886 76.0955 16.7445 76.6043 17.8022C77.1269 18.8599 77.3882 19.9931 77.3882 21.2019C77.3882 23.125 76.9687 24.7459 76.1299 26.0646C75.2911 27.3695 74.0603 28.3516 72.4377 29.011C70.8288 29.6703 68.8624 30 66.5384 30Z" fill="black"/>
<path d="M96.3526 5.13049L88.1843 30H81.6043L92.7635 0H96.9507L96.3526 5.13049ZM103.139 30L94.9499 5.13049L94.2899 0H98.5184L109.739 30H103.139ZM102.768 18.8324V23.6744H86.9054V18.8324H102.768Z" fill="black"/>
<path d="M139.079 0V30H132.891L120.824 9.89011V30H114.636V0H120.824L132.912 20.1305V0H139.079Z" fill="black"/>
<path d="M152.763 0V30H146.575V0H152.763ZM170.75 0L158.848 14.8146L151.979 22.1909L150.865 16.3393L155.507 9.99313L163.159 0H170.75ZM163.716 30L154.867 16.1332L159.446 12.3008L171.039 30H163.716Z" fill="black"/>
<path d="M185.711 0L173.809 14.8146L171.575 18.87L168.055 13.2967L170.468 9.99313L178.121 0H185.711ZM178.677 30L169.828 16.1332L174.408 12.3008L186 30H178.677Z" fill="black"/>
</svg>
